<svg version="1.1" id="Layer_1" xmlns="http://www.w3.org/2000/svg" xmlns:xlink="http://www.w3.org/1999/xlink" x="0px" y="0px"
	 width="100%" viewBox="0 0 320 320" enable-background="new 0 0 320 320" xml:space="preserve">
<path fill="#664386" opacity="1.000000" stroke="none" 
	d="
M181.000000,321.000000 
	C120.666687,321.000000 60.833378,321.000000 1.000048,321.000000 
	C1.000032,214.333389 1.000032,107.666786 1.000016,1.000134 
	C107.666565,1.000089 214.333130,1.000089 320.999756,1.000045 
	C320.999847,107.666534 320.999847,214.333069 320.999939,320.999817 
	C274.500000,321.000000 228.000000,321.000000 181.000000,321.000000 
M91.067741,269.216309 
	C92.900337,269.810791 94.731766,270.920166 96.565689,270.924316 
	C139.563751,271.021759 182.562057,271.002441 225.560333,270.989197 
	C227.184708,270.988708 228.809052,270.833984 230.715775,270.736725 
	C230.921265,267.412781 231.109955,264.360443 231.328537,260.824402 
	C238.066711,260.824402 244.320465,260.824402 250.732727,260.824402 
	C250.929199,257.384644 251.096298,254.459259 251.301865,250.860550 
	C257.961945,250.860550 264.350677,250.860550 270.779694,250.860550 
	C270.960144,247.238159 271.105988,244.309982 271.258362,241.251083 
	C274.644623,241.061935 277.576721,240.898148 280.776550,240.719406 
	C280.950195,237.352097 281.107788,234.295883 281.267334,231.201431 
	C284.785431,231.032532 287.711456,230.892059 290.754852,230.745956 
	C290.942719,227.333603 291.103851,224.406342 291.279205,221.221512 
	C294.672119,221.045273 297.725647,220.886673 300.798737,220.727051 
	C300.970337,217.195480 301.112518,214.269028 301.259796,211.237747 
	C304.684174,211.054794 307.608948,210.898529 310.720276,210.732300 
	C310.720276,184.088470 310.720276,157.843124 310.720276,131.288315 
	C307.419250,131.081314 304.369995,130.890106 301.346619,130.700516 
	C301.346619,117.275925 301.346619,104.363075 301.346619,91.259666 
	C304.603485,91.073685 307.528839,90.906639 310.586548,90.732033 
	C310.586548,77.375732 310.586548,64.341248 310.586548,51.211872 
	C307.250122,51.043953 304.322296,50.896599 301.254211,50.742188 
	C301.064270,47.368301 300.899567,44.442932 300.729706,41.426315 
	C280.681396,41.426315 260.980011,41.426315 241.200974,41.426315 
	C241.035202,44.777027 240.890350,47.705280 240.739548,50.753704 
	C237.337997,50.941788 234.410736,51.103645 231.227081,51.279682 
	C231.046417,54.662998 230.883606,57.711910 230.728546,60.615650 
	C183.861084,60.615650 137.615784,60.615650 91.238632,60.615650 
	C91.056595,57.313122 90.895218,54.385368 90.721275,51.229786 
	C87.308853,51.046455 84.258484,50.882576 81.205589,50.718559 
	C81.029564,47.174202 80.884506,44.253319 80.739990,41.343468 
	C60.616261,41.343468 41.036816,41.343468 21.260674,41.343468 
	C21.075670,44.596233 20.908970,47.527214 20.725908,50.745872 
	C17.406862,50.927685 14.349447,51.095161 11.356661,51.259102 
	C11.356661,64.746025 11.356661,77.658951 11.356661,90.744781 
	C14.623068,90.931511 17.549648,91.098824 20.576454,91.271858 
	C20.576454,104.646294 20.576454,117.680817 20.576454,130.796875 
	C17.232281,130.963669 14.307448,131.109543 11.319529,131.258545 
	C11.319529,157.998184 11.319529,184.243729 11.319529,210.777451 
	C14.671110,210.952316 17.723816,211.111588 20.799206,211.272034 
	C20.970211,214.803558 21.112110,217.734009 21.258699,220.761307 
	C24.683001,220.945099 27.614399,221.102448 30.771891,221.271927 
	C30.953983,224.687408 31.116659,227.738663 31.279682,230.796448 
	C34.824127,230.970673 37.749397,231.114456 40.769344,231.262909 
	C40.946983,234.703644 41.098103,237.630737 41.258442,240.736420 
	C44.582340,240.923569 47.514271,241.088638 50.728722,241.269623 
	C50.925625,244.586319 51.106743,247.637131 51.316685,251.173447 
	C58.063461,251.173447 64.321014,251.173447 70.732208,251.173447 
	C70.928642,254.613052 71.095718,257.538452 71.301216,261.136658 
	C77.959747,261.136658 84.348747,261.136658 91.016991,261.136658 
	C91.016991,263.987122 91.016991,266.142731 91.067741,269.216309 
z"/>
<path fill="#000000" opacity="1.000000" stroke="none" 
	d="
M91.042366,268.757324 
	C91.016991,266.142731 91.016991,263.987122 91.016991,261.136658 
	C84.348747,261.136658 77.959747,261.136658 71.301216,261.136658 
	C71.095718,257.538452 70.928642,254.613052 70.732208,251.173447 
	C64.321014,251.173447 58.063461,251.173447 51.316685,251.173447 
	C51.106743,247.637131 50.925625,244.586319 50.728722,241.269623 
	C47.514271,241.088638 44.582340,240.923569 41.258442,240.736420 
	C41.098103,237.630737 40.946983,234.703644 40.769344,231.262909 
	C37.749397,231.114456 34.824127,230.970673 31.279682,230.796448 
	C31.116659,227.738663 30.953983,224.687408 30.771891,221.271927 
	C27.614399,221.102448 24.683001,220.945099 21.258699,220.761307 
	C21.112110,217.734009 20.970211,214.803558 20.799206,211.272034 
	C17.723816,211.111588 14.671110,210.952316 11.319529,210.777451 
	C11.319529,184.243729 11.319529,157.998184 11.319529,131.258545 
	C14.307448,131.109543 17.232281,130.963669 20.576454,130.796875 
	C20.576454,117.680817 20.576454,104.646294 20.576454,91.271858 
	C17.549648,91.098824 14.623068,90.931511 11.356661,90.744781 
	C11.356661,77.658951 11.356661,64.746025 11.356661,51.259102 
	C14.349447,51.095161 17.406862,50.927685 20.725908,50.745872 
	C20.908970,47.527214 21.075670,44.596233 21.260674,41.343468 
	C41.036816,41.343468 60.616261,41.343468 80.739990,41.343468 
	C80.884506,44.253319 81.029564,47.174202 81.205589,50.718559 
	C84.258484,50.882576 87.308853,51.046455 90.721275,51.229786 
	C90.895218,54.385368 91.056595,57.313122 91.238632,60.615650 
	C137.615784,60.615650 183.861084,60.615650 230.728546,60.615650 
	C230.883606,57.711910 231.046417,54.662998 231.227081,51.279682 
	C234.410736,51.103645 237.337997,50.941788 240.739548,50.753704 
	C240.890350,47.705280 241.035202,44.777027 241.200974,41.426315 
	C260.980011,41.426315 280.681396,41.426315 300.729706,41.426315 
	C300.899567,44.442932 301.064270,47.368301 301.254211,50.742188 
	C304.322296,50.896599 307.250122,51.043953 310.586548,51.211872 
	C310.586548,64.341248 310.586548,77.375732 310.586548,90.732033 
	C307.528839,90.906639 304.603485,91.073685 301.346619,91.259666 
	C301.346619,104.363075 301.346619,117.275925 301.346619,130.700516 
	C304.369995,130.890106 307.419250,131.081314 310.720276,131.288315 
	C310.720276,157.843124 310.720276,184.088470 310.720276,210.732300 
	C307.608948,210.898529 304.684174,211.054794 301.259796,211.237747 
	C301.112518,214.269028 300.970337,217.195480 300.798737,220.727051 
	C297.725647,220.886673 294.672119,221.045273 291.279205,221.221512 
	C291.103851,224.406342 290.942719,227.333603 290.754852,230.745956 
	C287.711456,230.892059 284.785431,231.032532 281.267334,231.201431 
	C281.107788,234.295883 280.950195,237.352097 280.776550,240.719406 
	C277.576721,240.898148 274.644623,241.061935 271.258362,241.251083 
	C271.105988,244.309982 270.960144,247.238159 270.779694,250.860550 
	C264.350677,250.860550 257.961945,250.860550 251.301865,250.860550 
	C251.096298,254.459259 250.929199,257.384644 250.732727,260.824402 
	C244.320465,260.824402 238.066711,260.824402 231.328537,260.824402 
	C231.109955,264.360443 230.921265,267.412781 230.715775,270.736725 
	C228.809052,270.833984 227.184708,270.988708 225.560333,270.989197 
	C182.562057,271.002441 139.563751,271.021759 96.565689,270.924316 
	C94.731766,270.920166 92.900337,269.810791 91.042366,268.757324 
M271.855865,210.988464 
	C274.794861,210.988464 277.733887,210.988464 280.681458,210.988464 
	C280.681458,190.700089 280.681458,170.978973 280.681458,151.076920 
	C277.220520,151.076920 274.076385,151.076920 270.989777,150.151627 
	C270.989777,147.138824 270.989777,144.126038 270.989777,141.067780 
	C267.118286,141.067780 264.020721,141.067780 260.988464,140.144455 
	C260.988464,137.208237 260.988464,134.272034 260.988464,130.866058 
	C257.395813,130.866058 254.326279,130.866058 250.789474,130.866058 
	C250.789474,127.320206 250.789474,124.263443 250.789474,121.327515 
	C230.608612,121.327515 210.926666,121.327515 190.760605,121.327515 
	C190.760605,124.716278 190.760605,127.777573 190.760605,131.131363 
	C187.333557,131.131363 184.395004,131.131363 180.973877,131.131363 
	C180.973877,134.496292 180.973877,137.557755 180.973877,141.097076 
	C177.429703,141.097076 174.369141,141.097076 170.833542,141.097076 
	C170.833542,144.645401 170.833542,147.706299 170.833542,151.076935 
	C167.207932,151.076935 164.070099,151.076935 160.989807,150.151642 
	C160.989807,147.138840 160.989807,144.126053 160.989807,141.067795 
	C157.118301,141.067795 154.020706,141.067795 150.988464,140.144470 
	C150.988464,137.203842 150.988464,134.263214 150.988464,130.846390 
	C147.373535,130.846390 144.304245,130.846390 140.755371,130.846390 
	C140.755371,127.287758 140.755371,124.227570 140.755371,121.392639 
	C120.542526,121.392639 100.836433,121.392639 80.812027,121.392639 
	C80.812027,124.728745 80.812027,127.670807 80.812027,131.100250 
	C77.428780,131.100250 74.363571,131.100250 70.815155,131.100250 
	C70.815155,134.659760 70.815155,137.726974 70.815155,141.269440 
	C67.251930,141.269440 64.186737,141.269440 60.822498,141.269440 
	C60.822498,144.714005 60.822498,147.661926 60.822498,151.088882 
	C57.447475,151.088882 54.385365,151.088882 51.314342,151.088882 
	C51.314342,171.303314 51.314342,191.014160 51.314342,211.218231 
	C54.693089,211.218231 57.758968,211.218231 61.123978,211.218231 
	C61.123978,214.656693 61.123978,217.599670 61.123978,221.031998 
	C64.492401,221.031998 67.569389,221.031998 71.116585,221.031998 
	C71.116585,224.588211 71.116585,227.653229 71.116585,231.201233 
	C74.677460,231.201233 77.743759,231.201233 81.109642,231.201233 
	C81.109642,234.639938 81.109642,237.581238 81.109642,240.757004 
	C101.142517,240.757004 120.852974,240.757004 141.062469,240.757004 
	C141.062469,237.464294 141.062469,234.400253 141.062469,230.853882 
	C144.617691,230.853882 147.692230,230.853882 150.923065,230.853882 
	C150.923065,227.216583 150.923065,224.074417 151.848358,220.989807 
	C154.861160,220.989807 157.873947,220.989807 160.932205,220.989807 
	C160.932205,217.118301 160.932205,214.020706 161.855530,210.988464 
	C164.791977,210.988464 167.728424,210.988464 171.133896,210.988464 
	C171.133896,214.604233 171.133896,217.673813 171.133896,221.205032 
	C174.684189,221.205032 177.745560,221.205032 181.276001,221.205032 
	C181.276001,224.756683 181.276001,227.817444 181.276001,231.170807 
	C184.707169,231.170807 187.645752,231.170807 191.068436,231.170807 
	C191.068436,234.527466 191.068436,237.595795 191.068436,240.739441 
	C211.245056,240.739441 230.926132,240.739441 251.097290,240.739441 
	C251.097290,237.427368 251.097290,234.367966 251.097290,230.833527 
	C254.645432,230.833527 257.706329,230.833527 260.923096,230.833527 
	C260.923096,227.207458 260.923096,224.069855 261.848358,220.989807 
	C264.861145,220.989807 267.873962,220.989807 270.932190,220.989807 
	C270.932190,217.118484 270.932190,214.020798 271.855865,210.988464 
z"/>
<path fill="#D3AF3C" opacity="1.000000" stroke="none" 
	d="
M150.923065,220.932251 
	C150.923065,224.074417 150.923065,227.216583 150.923065,230.853882 
	C147.692230,230.853882 144.617691,230.853882 141.062469,230.853882 
	C141.062469,234.400253 141.062469,237.464294 141.062469,240.757004 
	C120.852974,240.757004 101.142517,240.757004 81.109642,240.757004 
	C81.109642,237.581238 81.109642,234.639938 81.109642,231.201233 
	C77.743759,231.201233 74.677460,231.201233 71.116585,231.201233 
	C71.116585,227.653229 71.116585,224.588211 71.116585,221.031998 
	C67.569389,221.031998 64.492401,221.031998 61.123978,221.031998 
	C61.123978,217.599670 61.123978,214.656693 61.123978,211.218231 
	C57.758968,211.218231 54.693089,211.218231 51.314342,211.218231 
	C51.314342,191.014160 51.314342,171.303314 51.314342,151.088882 
	C54.385365,151.088882 57.447475,151.088882 60.822498,151.088882 
	C60.822498,147.661926 60.822498,144.714005 60.822498,141.269440 
	C64.186737,141.269440 67.251930,141.269440 70.815155,141.269440 
	C70.815155,137.726974 70.815155,134.659760 70.815155,131.100250 
	C74.363571,131.100250 77.428780,131.100250 80.812027,131.100250 
	C80.812027,127.670807 80.812027,124.728745 80.812027,121.392639 
	C100.836433,121.392639 120.542526,121.392639 140.755371,121.392639 
	C140.755371,124.227570 140.755371,127.287758 140.755371,130.846390 
	C144.304245,130.846390 147.373535,130.846390 150.988464,130.846390 
	C150.988464,134.263214 150.988464,137.203842 150.992569,140.571869 
	C150.996674,140.999252 151.069809,140.930267 150.597702,140.959946 
	C143.855576,140.989624 137.585556,140.989624 130.828033,140.989624 
	C130.828033,144.644470 130.828033,147.713135 130.828033,151.264832 
	C127.268555,151.264832 124.207558,151.264832 121.237564,151.264832 
	C121.237564,171.367813 121.237564,190.963120 121.237564,211.056900 
	C124.522278,211.056900 127.597816,211.056900 131.149658,211.056900 
	C131.149658,214.613342 131.149658,217.680359 131.149658,221.069733 
	C138.124344,221.069733 144.597076,221.069733 151.033218,221.035248 
	C150.996628,221.000778 150.923065,220.932251 150.923065,220.932251 
z"/>
<path fill="#D3AF3C" opacity="1.000000" stroke="none" 
	d="
M160.932251,151.076935 
	C164.070099,151.076935 167.207932,151.076935 170.833542,151.076935 
	C170.833542,147.706299 170.833542,144.645401 170.833542,141.097076 
	C174.369141,141.097076 177.429703,141.097076 180.973877,141.097076 
	C180.973877,137.557755 180.973877,134.496292 180.973877,131.131363 
	C184.395004,131.131363 187.333557,131.131363 190.760605,131.131363 
	C190.760605,127.777573 190.760605,124.716278 190.760605,121.327515 
	C210.926666,121.327515 230.608612,121.327515 250.789474,121.327515 
	C250.789474,124.263443 250.789474,127.320206 250.789474,130.866058 
	C254.326279,130.866058 257.395813,130.866058 260.988464,130.866058 
	C260.988464,134.272034 260.988464,137.208237 260.992554,140.571854 
	C260.996674,140.999252 261.069824,140.930267 260.597717,140.959946 
	C253.855591,140.989624 247.585571,140.989624 240.828033,140.989624 
	C240.828033,144.644455 240.828033,147.713120 240.828033,151.264816 
	C237.268555,151.264816 234.207565,151.264816 231.237549,151.264816 
	C231.237549,171.367767 231.237549,190.963074 231.237549,211.056900 
	C234.529541,211.056900 237.594589,211.056900 241.149658,211.056900 
	C241.149658,214.613358 241.149658,217.680374 241.149658,221.069733 
	C248.124344,221.069733 254.597092,221.069733 261.033264,221.035248 
	C260.996674,221.000778 260.923096,220.932251 260.923096,220.932251 
	C260.923096,224.069855 260.923096,227.207458 260.923096,230.833527 
	C257.706329,230.833527 254.645432,230.833527 251.097290,230.833527 
	C251.097290,234.367966 251.097290,237.427368 251.097290,240.739441 
	C230.926132,240.739441 211.245056,240.739441 191.068436,240.739441 
	C191.068436,237.595795 191.068436,234.527466 191.068436,231.170807 
	C187.645752,231.170807 184.707169,231.170807 181.276001,231.170807 
	C181.276001,227.817444 181.276001,224.756683 181.276001,221.205032 
	C177.745560,221.205032 174.684189,221.205032 171.133896,221.205032 
	C171.133896,217.673813 171.133896,214.604233 171.133896,210.988464 
	C167.728424,210.988464 164.791977,210.988464 161.428131,210.992569 
	C161.000748,210.996674 161.069733,211.069809 161.040039,210.597565 
	C161.030151,190.393616 161.049942,170.661911 161.035248,150.966782 
	C161.000778,151.003372 160.932251,151.076935 160.932251,151.076935 
z"/>
<path fill="#D3AF3C" opacity="1.000000" stroke="none" 
	d="
M270.932251,151.076920 
	C274.076385,151.076920 277.220520,151.076920 280.681458,151.076920 
	C280.681458,170.978973 280.681458,190.700089 280.681458,210.988464 
	C277.733887,210.988464 274.794861,210.988464 271.428284,210.992569 
	C271.000732,210.996674 271.069733,211.069809 271.040039,210.597565 
	C271.030151,190.393616 271.049927,170.661911 271.035248,150.966766 
	C271.000763,151.003357 270.932251,151.076920 270.932251,151.076920 
z"/>
<path fill="#D3AF3C" opacity="1.000000" stroke="none" 
	d="
M150.959900,141.033524 
	C154.020706,141.067795 157.118301,141.067795 160.989807,141.067795 
	C160.989807,144.126053 160.989807,147.138840 160.961029,150.614288 
	C160.932251,151.076935 161.000778,151.003372 160.573273,150.996445 
	C157.134964,150.989517 154.124146,150.989517 151.069809,150.989517 
	C151.069809,147.121109 151.069809,144.025696 151.069809,140.930267 
	C151.069809,140.930267 150.996674,140.999252 150.959900,141.033524 
z"/>
<path fill="#D3AF3C" opacity="1.000000" stroke="none" 
	d="
M260.959900,141.033508 
	C264.020721,141.067780 267.118286,141.067780 270.989777,141.067780 
	C270.989777,144.126038 270.989777,147.138824 270.960999,150.614273 
	C270.932251,151.076920 271.000763,151.003357 270.573273,150.996429 
	C267.134979,150.989517 264.124146,150.989517 261.069824,150.989517 
	C261.069824,147.121109 261.069824,144.025696 261.069824,140.930267 
	C261.069824,140.930267 260.996674,140.999252 260.959900,141.033508 
z"/>
<path fill="#D3AF3C" opacity="1.000000" stroke="none" 
	d="
M160.966476,210.959900 
	C160.932205,214.020706 160.932205,217.118301 160.932205,220.989807 
	C157.873947,220.989807 154.861160,220.989807 151.385712,220.961029 
	C150.923065,220.932251 150.996628,221.000778 151.003555,220.573273 
	C151.010483,217.134964 151.010483,214.124146 151.010483,211.069809 
	C154.878891,211.069809 157.974304,211.069809 161.069733,211.069809 
	C161.069733,211.069809 161.000748,210.996674 160.966476,210.959900 
z"/>
<path fill="#D3AF3C" opacity="1.000000" stroke="none" 
	d="
M270.966461,210.959885 
	C270.932190,214.020798 270.932190,217.118484 270.932190,220.989807 
	C267.873962,220.989807 264.861145,220.989807 261.385742,220.961029 
	C260.923096,220.932251 260.996674,221.000778 261.003571,220.573273 
	C261.010468,217.134949 261.010468,214.124130 261.010468,211.069809 
	C264.878906,211.069809 267.974304,211.069809 271.069733,211.069809 
	C271.069733,211.069809 271.000732,210.996674 270.966461,210.959885 
z"/>
<path fill="#000000" opacity="1.000000" stroke="none" 
	d="
M161.040039,210.597565 
	C157.974304,211.069809 154.878891,211.069809 151.010483,211.069809 
	C151.010483,214.124146 151.010483,217.134964 151.040146,220.607758 
	C144.597076,221.069733 138.124344,221.069733 131.149658,221.069733 
	C131.149658,217.680359 131.149658,214.613342 131.149658,211.056900 
	C127.597816,211.056900 124.522278,211.056900 121.237564,211.056900 
	C121.237564,190.963120 121.237564,171.367813 121.237564,151.264832 
	C124.207558,151.264832 127.268555,151.264832 130.828033,151.264832 
	C130.828033,147.713135 130.828033,144.644470 130.828033,140.989624 
	C137.585556,140.989624 143.855576,140.989624 150.597702,140.959946 
	C151.069809,144.025696 151.069809,147.121109 151.069809,150.989517 
	C154.124146,150.989517 157.134964,150.989517 160.607758,150.959854 
	C161.049942,170.661911 161.030151,190.393616 161.040039,210.597565 
z"/>
<path fill="#000000" opacity="1.000000" stroke="none" 
	d="
M271.040039,210.597565 
	C267.974304,211.069809 264.878906,211.069809 261.010468,211.069809 
	C261.010468,214.124130 261.010468,217.134949 261.040161,220.607758 
	C254.597092,221.069733 248.124344,221.069733 241.149658,221.069733 
	C241.149658,217.680374 241.149658,214.613358 241.149658,211.056900 
	C237.594589,211.056900 234.529541,211.056900 231.237549,211.056900 
	C231.237549,190.963074 231.237549,171.367767 231.237549,151.264816 
	C234.207565,151.264816 237.268555,151.264816 240.828033,151.264816 
	C240.828033,147.713120 240.828033,144.644455 240.828033,140.989624 
	C247.585571,140.989624 253.855591,140.989624 260.597717,140.959946 
	C261.069824,144.025696 261.069824,147.121109 261.069824,150.989517 
	C264.124146,150.989517 267.134979,150.989517 270.607758,150.959854 
	C271.049927,170.661911 271.030151,190.393616 271.040039,210.597565 
z"/>
</svg>